<svg preserveAspectRatio="none" width="100%" height="100%" overflow="visible" style="display: block;" viewBox="0 0 137 40" fill="none" xmlns="http://www.w3.org/2000/svg">
<g id="g12">
<path id="Fill-1" fill-rule="evenodd" clip-rule="evenodd" d="M57.4914 23.8756C57.929 23.8756 58.2924 23.8099 58.5805 23.6765C58.8681 23.5435 59.0983 23.3543 59.2711 23.1114C59.4454 22.8684 59.5657 22.5787 59.6345 22.2421C59.7038 21.906 59.7384 21.5356 59.7384 21.1303V14.2815H62.3484V20.9033C62.3484 21.5411 62.2959 22.1639 62.1925 22.7723C62.089 23.3812 61.8786 23.9194 61.5623 24.3894C61.2449 24.8579 60.7959 25.2378 60.2137 25.5276C59.6315 25.8169 58.8627 25.9622 57.9062 25.9622C57.7102 25.9622 57.4973 25.9508 57.2671 25.9269C57.0359 25.9045 56.8002 25.8691 56.5587 25.8228C56.3166 25.776 56.077 25.7153 55.8413 25.6406C55.6047 25.5654 55.3824 25.4753 55.1754 25.3708V23.198C55.5552 23.4191 55.9567 23.5859 56.3765 23.7019C56.7973 23.8179 57.1691 23.8756 57.4914 23.8756Z" fill="var(--fill-0, #4D4D4D)"/>
<path id="Fill-3" fill-rule="evenodd" clip-rule="evenodd" d="M78.2585 23.9458H73.8861L73.09 25.7536H70.531L75.9421 14.0729H76.3213L81.6462 25.7536H79.0352L78.2585 23.9458ZM74.6628 22.1724H77.4985L76.1327 18.9914H76.0638L74.6628 22.1724Z" fill="var(--fill-0, #4D4D4D)"/>
<path id="Fill-4" fill-rule="evenodd" clip-rule="evenodd" d="M89.3547 20.104C89.3547 19.2705 89.4993 18.4849 89.7859 17.7485C90.075 17.0131 90.4894 16.3709 91.032 15.8197C91.5721 15.2691 92.23 14.8344 93.0023 14.5163C93.7731 14.1971 94.6434 14.0383 95.6113 14.0383C96.0489 14.0383 96.5702 14.0816 97.1752 14.1678C97.7812 14.2554 98.3421 14.4202 98.8614 14.6636V16.9051C98.3525 16.6387 97.8351 16.4515 97.3059 16.341C96.7762 16.231 96.2796 16.1757 95.8187 16.1757C95.2657 16.1757 94.7548 16.2663 94.288 16.445C93.8231 16.6253 93.4192 16.8852 93.0795 17.2277C92.7389 17.5698 92.4706 17.9835 92.2751 18.4704C92.079 18.9568 91.9825 19.5135 91.9825 20.1393C91.9825 20.6601 92.0533 21.15 92.1978 21.6075C92.3404 22.0661 92.5602 22.4629 92.8538 22.799C93.1494 23.135 93.5177 23.4009 93.9613 23.5986C94.4029 23.7947 94.9306 23.8938 95.5425 23.8938C95.7831 23.8938 96.0489 23.8709 96.338 23.8241C96.6252 23.7778 96.8722 23.7141 97.0792 23.6324V19.8431H99.3614V25.2834C98.796 25.5169 98.1638 25.6842 97.4604 25.7887C96.7574 25.8918 96.0489 25.9451 95.3346 25.9451C94.3548 25.9451 93.49 25.7997 92.7424 25.5104C91.9929 25.2206 91.3691 24.8154 90.8666 24.2931C90.3656 23.7723 89.9869 23.1549 89.7359 22.442C89.4799 21.729 89.3547 20.9498 89.3547 20.104Z" fill="var(--fill-0, #4D4D4D)"/>
<path id="Fill-6" fill-rule="evenodd" clip-rule="evenodd" d="M111.719 20.7478V23.7549H117.197V25.7534H109.143V14.2813H116.868V16.2803H111.719V18.8175H116.332V20.7478H111.719Z" fill="var(--fill-0, #4D4D4D)"/>
<path id="Fill-7" fill-rule="evenodd" clip-rule="evenodd" d="M131.348 20.2436L128.446 25.7536H125.679L129.068 19.8268L125.904 14.2984H128.67L131.348 19.444L134.009 14.2984H136.792L133.595 19.8268C134.148 20.8226 134.715 21.8109 135.297 22.7897C135.879 23.7695 136.447 24.7573 137 25.7536H134.217L131.348 20.2436Z" fill="var(--fill-0, #4D4D4D)"/>
<path id="Fill-9" fill-rule="evenodd" clip-rule="evenodd" d="M9.9775 20.0003L0 39.9781L14.5489 40L32.4737 4.09156H37.8976L29.9577 19.9888L37.8872 35.8855H27.9136L29.9449 39.9781H44.4938L34.5158 20.0003L44.4938 0.0224045L29.9449 0L28.5226 2.86579L12.0181 35.9085H6.59523L14.5336 20.0107L6.60711 4.11645H16.5792L14.5489 0.0224045H0L9.9775 20.0003Z" fill="var(--fill-0, #4D4D4D)"/>
</g>
</svg>
