<svg preserveAspectRatio="none" width="100%" height="100%" overflow="visible" style="display: block;" viewBox="0 0 167.024 40" fill="none" xmlns="http://www.w3.org/2000/svg">
<g id="Group">
<path id="Vector" d="M62.5925 19.5885C61.5276 18.6479 60.297 17.8718 58.9481 17.2839C57.5993 16.6961 56.2031 16.2257 54.7832 15.8965C52.3694 15.3792 50.4763 14.6972 49.1037 13.8977C47.7312 13.0982 47.0449 12.0635 47.0449 10.7701C47.0449 10.2763 47.1869 9.806 47.4709 9.38272C47.7549 8.95944 48.1335 8.55967 48.6068 8.25397C49.0801 7.92475 49.6243 7.68959 50.216 7.47795C50.8076 7.28983 51.3992 7.19577 52.0145 7.19577C52.9374 7.19577 53.7893 7.31334 54.6175 7.5485C55.4458 7.78366 56.2031 8.06584 56.8893 8.39506C57.5756 8.7478 58.1909 9.10053 58.7588 9.50029C59.3031 9.90006 59.8001 10.2763 60.2024 10.6055L63.7994 3.85655C63.752 3.80952 63.7284 3.78601 63.681 3.73898C63.0184 3.15109 62.1428 2.58671 61.1016 2.02234C60.0604 1.48148 58.7825 0.987654 57.2916 0.587889C55.8244 0.188125 54.1206 0 52.1564 0C49.79 0 47.7312 0.305702 46.0037 0.940623C44.2525 1.57554 42.809 2.4221 41.6494 3.50382C40.4899 4.58554 39.6143 5.83186 39.0463 7.2428C38.4784 8.65373 38.1944 10.1587 38.1944 11.7343C38.1944 13.1687 38.4311 14.4856 38.928 15.6614C39.425 16.8372 40.1112 17.8954 41.0105 18.7889C41.9097 19.7061 42.9746 20.4821 44.2289 21.117C45.4594 21.7519 46.8083 22.2457 48.2755 22.5985C51.2572 23.351 53.4343 24.127 54.8069 24.903C56.1794 25.679 56.8657 26.7842 56.8657 28.1717C56.8657 28.8301 56.7 29.3945 56.3687 29.9118C56.0374 30.4292 55.6115 30.8524 55.0672 31.2287C54.5229 31.5814 53.9313 31.8636 53.2923 32.0517C52.6534 32.2399 51.9908 32.3339 51.3519 32.3339C50.2396 32.3339 49.1984 32.1928 48.2281 31.9106C47.2579 31.6285 46.3587 31.2522 45.5304 30.8054C45.0808 30.5703 44.6785 30.3116 44.2762 30.0294C43.6136 29.6061 42.5487 28.9006 41.3418 28.0541L37.5555 35.1558C37.8868 35.438 38.2181 35.7202 38.5967 35.9788C39.6143 36.7313 40.7502 37.4133 42.0044 38.0012C43.2586 38.5891 44.6785 39.0594 46.2403 39.4121C47.8022 39.7648 49.5534 39.953 51.4702 39.953C53.529 39.953 55.4458 39.6473 57.2206 39.0594C58.9955 38.4715 60.5573 37.6484 61.8589 36.5902C63.1841 35.532 64.2253 34.2857 64.9826 32.8277C65.7398 31.3933 66.1185 29.8178 66.1185 28.1011C66.1185 26.1258 65.7872 24.4327 65.1482 23.0688C64.5329 21.7049 63.681 20.5526 62.5925 19.5885ZM24.824 25.7025L8.25889 1.03469H0V39.0359H8.54287V13.8977L25.5103 39.0359H33.3669V1.03469H24.824V25.7025ZM93.9479 4.75015C92.8593 3.6214 91.4631 2.72781 89.7829 2.04586C88.1027 1.3639 86.0676 1.01117 83.7012 1.01117H69.7628V39.0359H78.1873V25.632H84.1034C85.831 25.632 87.4638 25.3733 89.0257 24.8324C90.5875 24.2916 91.9837 23.5156 93.1906 22.5044C94.3975 21.4697 95.3441 20.1999 96.054 18.6714C96.7639 17.1429 97.1189 15.3322 97.1189 13.2863C97.1189 11.6872 96.8586 10.1587 96.338 8.67725C95.841 7.17225 95.0364 5.87889 93.9479 4.75015ZM87.0615 17.2369C86.1149 18.2011 84.8607 18.6949 83.2515 18.6949H78.211V8.04233H83.2042C84.8134 8.04233 86.0913 8.53615 87.0378 9.54732C87.9844 10.5585 88.4814 11.8519 88.4814 13.4509C88.4814 15.0029 88.0081 16.2728 87.0615 17.2369ZM124.333 30.8289C123.86 31.0406 123.363 31.2052 122.842 31.3463C121.825 31.6285 120.641 31.7695 119.269 31.7695C117.589 31.7695 116.074 31.4638 114.749 30.8524C113.4 30.241 112.264 29.418 111.318 28.3363C110.371 27.2781 109.637 26.0082 109.117 24.5738C108.596 23.1393 108.336 21.5638 108.336 19.8942C108.336 18.2716 108.596 16.7196 109.117 15.2616C109.637 13.8036 110.371 12.5103 111.318 11.4051C112.264 10.2998 113.447 9.42975 114.82 8.81834C116.192 8.18342 117.754 7.87772 119.458 7.87772C121.233 7.87772 122.795 8.20694 124.167 8.84186C124.499 8.98295 126.96 10.0882 129.445 12.6279L133.278 5.45561C131.882 4.04468 130.249 2.84538 128.427 1.95179C125.777 0.658436 122.676 0.0235156 119.103 0.0235156C116.169 0.0235156 113.471 0.540858 111.057 1.59906C108.62 2.63374 106.537 4.06819 104.81 5.87889C103.059 7.68959 101.71 9.806 100.763 12.2516C99.8166 14.6972 99.3197 17.331 99.3197 20.1528C99.3197 23.0453 99.793 25.679 100.763 28.1011C101.71 30.5232 103.059 32.5926 104.81 34.3563C106.537 36.1199 108.62 37.5073 111.034 38.495C113.447 39.4827 116.098 39.9765 119.009 39.9765C120.76 39.9765 122.464 39.7648 124.073 39.3416C125.706 38.9183 127.196 38.3539 128.593 37.6249C129.989 36.8959 131.267 36.0494 132.403 35.0852C132.616 34.8971 132.805 34.7325 133.018 34.5444L129.587 27.96C128.616 28.7125 126.818 29.8883 124.333 30.8289ZM158.079 30.8289C157.605 31.0406 157.108 31.2052 156.588 31.3463C155.57 31.6285 154.387 31.7695 153.014 31.7695C151.334 31.7695 149.82 31.4638 148.494 30.8524C147.146 30.241 146.01 29.418 145.063 28.3363C144.116 27.2781 143.359 26.0082 142.862 24.5738C142.342 23.1393 142.081 21.5638 142.081 19.8942C142.081 18.2716 142.342 16.7196 142.862 15.2616C143.383 13.8036 144.116 12.5103 145.063 11.4051C146.01 10.2998 147.193 9.42975 148.565 8.81834C149.938 8.18342 151.5 7.87772 153.204 7.87772C154.978 7.87772 156.54 8.20694 157.913 8.84186C158.244 8.98295 160.705 10.0882 163.19 12.6279L167.024 5.45561C165.627 4.04468 163.995 2.84538 162.172 1.95179C159.498 0.705467 156.398 0.0470312 152.825 0.0470312C149.891 0.0470312 147.193 0.564374 144.779 1.62257C142.342 2.65726 140.259 4.09171 138.532 5.90241C136.804 7.71311 135.455 9.82951 134.485 12.2751C133.538 14.7208 133.042 17.3545 133.042 20.1764C133.042 23.0688 133.515 25.7025 134.485 28.1246C135.432 30.5467 136.781 32.6161 138.532 34.3798C140.259 36.1434 142.342 37.5309 144.755 38.5185C147.169 39.5062 149.82 40 152.73 40C154.482 40 156.185 39.7884 157.795 39.3651C159.427 38.9418 160.918 38.3774 162.314 37.6484C163.711 36.9195 164.989 36.0729 166.124 35.1088C166.337 34.9206 166.527 34.756 166.74 34.5679L163.308 27.9835C162.362 28.7125 160.563 29.8883 158.079 30.8289Z" fill="var(--fill-0, #4D4D4D)"/>
</g>
</svg>
