<svg preserveAspectRatio="none" width="100%" height="100%" overflow="visible" style="display: block;" viewBox="0 0 184 40" fill="none" xmlns="http://www.w3.org/2000/svg">
<g id="Grayscale/Logo Vertical" clip-path="url(#clip0_0_16)">
<path id="Vector" d="M14.8759 39.2156L25.3702 28.7273C25.8301 28.2658 26.0883 27.641 26.0883 26.9896C26.0883 26.3383 25.8301 25.7134 25.3702 25.2519L18.374 18.2649C18.6039 18.4933 18.7864 18.7648 18.9109 19.064C19.0354 19.3631 19.0995 19.6838 19.0995 20.0078C19.0995 20.3318 19.0354 20.6525 18.9109 20.9516C18.7864 21.2507 18.6039 21.5223 18.374 21.7507L7.89017 32.2338C7.66181 32.4619 7.48067 32.7328 7.35708 33.031C7.23349 33.3291 7.16988 33.6487 7.16988 33.9714C7.16988 34.2942 7.23349 34.6137 7.35708 34.9119C7.48067 35.21 7.66181 35.4809 7.89017 35.7091V35.7091L11.3986 39.2156C11.8604 39.6752 12.4856 39.9333 13.1373 39.9333C13.789 39.9333 14.4142 39.6752 14.8759 39.2156Z" fill="var(--fill-0, #8C8C8C)"/>
<path id="Vector_2" d="M7.89017 35.7091C7.66181 35.4809 7.48067 35.21 7.35708 34.9119C7.23349 34.6137 7.16988 34.2941 7.16988 33.9714C7.16988 33.6487 7.23349 33.3291 7.35708 33.031C7.48067 32.7328 7.66181 32.4619 7.89017 32.2338L18.374 21.7506C18.6039 21.5223 18.7864 21.2507 18.9109 20.9516C19.0354 20.6525 19.0995 20.3318 19.0995 20.0078C19.0995 19.6838 19.0354 19.3631 18.9109 19.064C18.7864 18.7648 18.6039 18.4933 18.374 18.2649L14.8759 14.7636C14.6476 14.5354 14.3766 14.3544 14.0783 14.2308C13.7799 14.1073 13.4602 14.0438 13.1373 14.0438C12.8144 14.0438 12.4946 14.1073 12.1963 14.2308C11.898 14.3544 11.6269 14.5354 11.3986 14.7636L0.904408 25.2519C0.676052 25.4801 0.494907 25.751 0.371319 26.0492C0.247731 26.3473 0.184119 26.6669 0.184119 26.9896C0.184119 27.3123 0.247731 27.6319 0.371319 27.93C0.494907 28.2282 0.676052 28.4991 0.904408 28.7273L7.89017 35.7091Z" fill="var(--fill-0, #A6A6A6)"/>
<path id="Vector_3" d="M20.1205 20.0104L14.8811 25.2416C14.4179 25.7045 14.1577 26.3323 14.1577 26.987C14.1577 27.6417 14.4179 28.2695 14.8811 28.7325C15.3443 29.1954 15.9725 29.4555 16.6276 29.4555C17.2826 29.4555 17.9108 29.1954 18.374 28.7325L21.8669 25.2416C22.3306 24.7797 22.9586 24.5203 23.6133 24.5203C24.268 24.5203 24.896 24.7797 25.3598 25.2416L20.1205 20.0104Z" fill="var(--fill-0, #737373)"/>
<path id="Vector_4" d="M14.8811 25.2416L25.3702 14.7636C25.8301 14.3021 26.0883 13.6773 26.0883 13.026C26.0883 12.3746 25.8301 11.7498 25.3702 11.2883L18.374 4.3013C18.6041 4.53011 18.7867 4.80209 18.9112 5.10163C19.0358 5.40117 19.1 5.72237 19.1 6.04675C19.1 6.37114 19.0358 6.69233 18.9112 6.99187C18.7867 7.29141 18.6041 7.5634 18.374 7.79221L7.89017 18.2701C7.66181 18.4983 7.48067 18.7692 7.35708 19.0674C7.23349 19.3655 7.16988 19.6851 7.16988 20.0078C7.16988 20.3305 7.23349 20.6501 7.35708 20.9482C7.48067 21.2464 7.66181 21.5173 7.89017 21.7455L14.8811 28.7325C14.419 28.269 14.1595 27.6413 14.1595 26.987C14.1595 26.3327 14.419 25.705 14.8811 25.2416V25.2416Z" fill="var(--fill-0, #BFBFBF)"/>
<path id="Vector_5" d="M7.89017 18.2701L18.374 7.79221C18.6041 7.5634 18.7867 7.29141 18.9112 6.99187C19.0358 6.69233 19.1 6.37114 19.1 6.04675C19.1 5.72237 19.0358 5.40117 18.9112 5.10163C18.7867 4.80209 18.6041 4.5301 18.374 4.3013L14.8759 0.8C14.4142 0.340344 13.789 0.0822647 13.1373 0.0822647C12.4856 0.0822647 11.8604 0.340344 11.3986 0.8L0.904408 11.2883C0.676052 11.5165 0.494907 11.7874 0.371319 12.0855C0.247731 12.3837 0.184119 12.7033 0.184119 13.026C0.184119 13.3487 0.247731 13.6683 0.371319 13.9664C0.494907 14.2646 0.676052 14.5355 0.904408 14.7636L7.89017 21.7455C7.66181 21.5173 7.48067 21.2464 7.35708 20.9482C7.23349 20.6501 7.16988 20.3305 7.16988 20.0078C7.16988 19.6851 7.23349 19.3655 7.35708 19.0674C7.48067 18.7692 7.66181 18.4983 7.89017 18.2701V18.2701Z" fill="var(--fill-0, #D9D9D9)"/>
<path id="Vector_6" d="M48.5573 24C48.5838 24.7345 48.4366 25.4649 48.1277 26.1319C47.8189 26.7989 47.357 27.3838 46.7797 27.839C45.4738 28.8259 43.8614 29.3207 42.2264 29.2364C38.7907 29.2364 36.301 27.5844 35.355 24.8675L37.8967 23.3766C38.6088 25.3818 40.085 26.374 42.3252 26.374C44.5654 26.374 45.631 25.4338 45.631 24.0364C45.6442 23.7067 45.5687 23.3796 45.4124 23.089C45.2561 22.7985 45.0246 22.5551 44.7421 22.3844C43.7457 21.8345 42.6839 21.4122 41.5819 21.1273C40.2521 20.7988 38.987 20.2492 37.8395 19.5013C37.2701 19.0988 36.8124 18.5582 36.5096 17.9302C36.2068 17.3023 36.0689 16.6076 36.1087 15.9117C36.0791 15.2016 36.2155 14.4943 36.5069 13.846C36.7983 13.1977 37.2368 12.6262 37.7876 12.1766C38.923 11.2354 40.362 10.7388 41.8366 10.7792C43.1424 10.7438 44.4292 11.0966 45.5341 11.793C46.639 12.4894 47.5121 13.498 48.0427 14.6909L45.579 16.1039C45.2989 15.3474 44.7866 14.6988 44.1153 14.251C43.4441 13.8031 42.6483 13.5789 41.8418 13.6104C40.1369 13.6104 39.0402 14.4727 39.0402 15.8234C39.0402 17.174 39.9082 17.7558 42.6319 18.5922C43.318 18.8208 43.8014 18.9766 44.1028 19.1117C44.4043 19.2468 44.8669 19.3922 45.4282 19.6312C45.895 19.8012 46.3331 20.0412 46.7277 20.3429C47.314 20.7512 47.7887 21.2998 48.1083 21.9387C48.4279 22.5775 48.5823 23.2862 48.5573 24V24ZM69.1299 23.0078C69.1299 25.4753 67.8305 26.6442 65.8969 26.6442C64.1401 26.6442 63.0486 25.6052 63.0486 23.6935V16.1922H60.2938V23.9844C60.2938 27.2416 62.2533 29.2208 65.1797 29.2208C66.9885 29.2208 68.2983 28.561 69.1247 27.2675V27.6831C69.1241 27.8418 69.1548 27.9991 69.215 28.1459C69.2753 28.2927 69.3641 28.4262 69.4761 28.5387C69.5881 28.6511 69.7213 28.7404 69.868 28.8013C70.0146 28.8622 70.1718 28.8935 70.3306 28.8935H71.8899V16.1922H69.1299V23.0078ZM84.8531 11.1065H87.5975V28.9091H86.0382C85.8794 28.9091 85.7222 28.8777 85.5755 28.8169C85.4289 28.756 85.2957 28.6667 85.1837 28.5543C85.0716 28.4418 84.9829 28.3083 84.9226 28.1615C84.8623 28.0147 84.8316 27.8574 84.8323 27.6987V27.0753C84.3319 27.7812 83.6613 28.3494 82.8826 28.7272C82.1039 29.105 81.2423 29.2801 80.3779 29.2364C79.5349 29.2518 78.6983 29.0874 77.9239 28.7542C77.1495 28.421 76.4551 27.9265 75.887 27.3039C74.6903 26.01 74.0256 24.3127 74.0256 22.5507C74.0256 20.7886 74.6903 19.0913 75.887 17.7974C76.4534 17.1768 77.1452 16.6835 77.9168 16.3503C78.6883 16.0172 79.5219 15.8517 80.3623 15.8649C81.2237 15.8235 82.0819 15.997 82.8595 16.3697C83.6371 16.7425 84.3097 17.3027 84.8167 18L84.8531 11.1065ZM84.8531 22.5351C84.8646 22.0003 84.7669 21.4687 84.5658 20.973C84.3647 20.4773 84.0645 20.0278 83.6836 19.6519C82.9148 18.9025 81.8833 18.483 80.8093 18.483C79.7353 18.483 78.7038 18.9025 77.9349 19.6519C77.5565 20.0316 77.2599 20.4846 77.0632 20.9831C76.8666 21.4816 76.7741 22.0151 76.7914 22.5507C76.7763 23.0898 76.8697 23.6266 77.0661 24.129C77.2625 24.6314 77.558 25.0893 77.9349 25.4753C78.7144 26.2065 79.7444 26.6117 80.8134 26.6078C81.8824 26.604 82.9094 26.1913 83.6836 25.4545C84.0587 25.0712 84.3535 24.6169 84.5507 24.1183C84.748 23.6196 84.8437 23.0867 84.8323 22.5507L84.8531 22.5351ZM96.1218 25.4078L92.3275 16.1766H89.3284L94.7184 28.6442L94.5937 28.8987C93.9076 30.6493 92.9408 31.4961 91.2099 31.387V33.9844C94.1363 34.161 96.1946 32.587 97.416 29.3091L102.302 16.187H99.3756L96.1218 25.4078ZM113.721 20.426C113.346 20.1931 112.945 20.0048 112.526 19.8649C112.128 19.6877 111.721 19.5351 111.304 19.4078L109.932 18.9247C108.865 18.6167 107.846 18.164 106.902 17.5792C106.595 17.3514 106.351 17.0503 106.191 16.7036C106.031 16.3569 105.961 15.9757 105.987 15.5948C105.987 13.6623 107.463 12.5143 109.678 12.5143C110.628 12.4664 111.569 12.7281 112.358 13.2602C113.147 13.7923 113.742 14.5659 114.054 15.4649L115.556 14.6286C115.065 13.4803 114.243 12.5038 113.196 11.823C112.148 11.1423 110.922 10.788 109.672 10.8052C108.257 10.7538 106.872 11.2233 105.779 12.1247C105.264 12.559 104.856 13.1057 104.585 13.7226C104.315 14.3395 104.19 15.0103 104.22 15.6831C104.197 16.3995 104.371 17.1085 104.724 17.7325C105.077 18.3565 105.595 18.8713 106.221 19.2208C107.38 19.8359 108.599 20.3303 109.859 20.6961C111.041 21.0325 112.17 21.5289 113.217 22.1714C113.558 22.4036 113.832 22.7198 114.014 23.0894C114.197 23.4589 114.28 23.8692 114.257 24.2805C114.257 26.213 112.697 27.4857 110.057 27.4857C107.333 27.4857 105.582 26.187 104.942 23.974L103.435 24.8675C104.35 27.5844 106.793 29.2156 110.047 29.2156C111.61 29.2884 113.15 28.8104 114.397 27.8649C115.24 27.1576 115.806 26.1762 115.996 25.0931C116.186 24.01 115.988 22.8945 115.437 21.9429C114.982 21.3148 114.388 20.8008 113.701 20.4416L113.721 20.426ZM129.834 18.2909V17.1013C129.835 16.9799 129.811 16.8597 129.765 16.7477C129.718 16.6357 129.649 16.5342 129.562 16.4494C129.475 16.3646 129.372 16.2981 129.259 16.2539C129.146 16.2097 129.025 16.1887 128.904 16.1922H128.13V28.9091H129.808V21.8182C129.808 18.8935 131.513 17.5948 133.831 17.5948V15.9896C131.939 15.9896 130.614 16.7532 129.824 18.3065L129.834 18.2909ZM146.119 17.8805C147.274 19.1732 147.9 20.8538 147.871 22.587C147.871 22.7636 147.845 23.0442 147.819 23.3766H136.643C136.971 25.9429 138.982 27.5688 141.706 27.5688C143.64 27.5688 145.09 26.7065 145.802 25.4078L147.278 26.2753C146.678 27.2056 145.847 27.9642 144.866 28.4769C143.884 28.9896 142.787 29.2387 141.68 29.2C140.78 29.2345 139.883 29.0851 139.042 28.7609C138.202 28.4366 137.437 27.9444 136.794 27.3143C135.59 26.0205 134.918 24.3202 134.913 22.5531C134.909 20.786 135.571 19.0822 136.768 17.7818C137.389 17.1491 138.134 16.6527 138.958 16.3244C139.781 15.9962 140.664 15.8432 141.55 15.8753C142.413 15.8462 143.272 16.0129 144.061 16.3629C144.851 16.7128 145.551 17.237 146.108 17.8961L146.119 17.8805ZM146.119 21.7455C146.014 20.5464 145.456 19.4321 144.56 18.6286C143.72 17.8987 142.642 17.5014 141.529 17.5117C140.325 17.4642 139.148 17.8764 138.237 18.6646C137.325 19.4528 136.748 20.558 136.623 21.7558L146.119 21.7455ZM162.232 16.1766H163.001V28.9091H162.232C161.991 28.9091 161.759 28.8133 161.589 28.6428C161.418 28.4723 161.322 28.2411 161.322 28V26.4156C160.798 27.3012 160.044 28.0288 159.14 28.5217C158.236 29.0145 157.216 29.2543 156.187 29.2156C155.316 29.2315 154.452 29.0681 153.647 28.7356C152.842 28.4032 152.114 27.9088 151.509 27.2831C150.285 26.0123 149.601 24.3171 149.601 22.5532C149.601 20.7894 150.285 19.0942 151.509 17.8234C152.114 17.1967 152.841 16.7016 153.646 16.3691C154.451 16.0366 155.316 15.8738 156.187 15.8909C157.216 15.8542 158.236 16.096 159.139 16.5907C160.042 17.0853 160.794 17.8145 161.317 18.7013V17.1429C161.311 17.02 161.331 16.8973 161.374 16.7822C161.417 16.667 161.483 16.5619 161.568 16.473C161.653 16.3841 161.756 16.3134 161.869 16.2652C161.982 16.2169 162.104 16.1921 162.227 16.1922L162.232 16.1766ZM161.322 22.5351C161.336 21.8745 161.214 21.2182 160.965 20.6063C160.715 19.9944 160.343 19.4398 159.872 18.9766C159.405 18.5089 158.85 18.1378 158.239 17.8846C157.628 17.6314 156.973 17.5011 156.312 17.5011C155.65 17.5011 154.995 17.6314 154.384 17.8846C153.773 18.1378 153.219 18.5089 152.751 18.9766C152.28 19.4398 151.908 19.9944 151.659 20.6063C151.409 21.2182 151.288 21.8745 151.301 22.5351C151.29 23.1992 151.412 23.8588 151.662 24.4746C151.911 25.0904 152.281 25.6498 152.751 26.1195C153.703 27.0492 154.981 27.5697 156.312 27.5697C157.642 27.5697 158.92 27.0492 159.872 26.1195C160.339 25.6512 160.708 25.0942 160.956 24.4812C161.204 23.8682 161.327 23.2118 161.317 22.5507L161.322 22.5351ZM179.062 15.8753C178.227 15.8357 177.398 16.0308 176.669 16.4385C175.939 16.8462 175.339 17.4502 174.935 18.1818C174.197 16.6234 172.898 15.8701 171.068 15.8701C170.284 15.8453 169.508 16.0331 168.823 16.4136C168.138 16.7941 167.568 17.3531 167.175 18.0312V17.1013C167.176 16.9822 167.153 16.8641 167.108 16.7538C167.062 16.6435 166.996 16.5433 166.912 16.4588C166.828 16.3743 166.728 16.3073 166.618 16.2615C166.508 16.2158 166.39 16.1922 166.271 16.1922H165.496V28.9091H167.175V21.8649C167.175 18.9143 168.802 17.5169 170.839 17.5169C172.669 17.5169 173.818 18.7377 173.818 20.9766V28.9091H175.497V21.8649C175.497 18.8883 176.921 17.5169 179.031 17.5169C180.887 17.5169 182.15 18.7636 182.15 20.9766V28.9091H183.828V20.9766C183.813 17.8442 181.921 15.8909 179.057 15.8909L179.062 15.8753ZM54.6075 12.6338H51.8631V16.1922H49.5189V18.8364H51.8631V25.4545C51.8624 25.9066 51.9509 26.3543 52.1235 26.7722C52.2961 27.19 52.5494 27.5697 52.869 27.8896C53.1886 28.2095 53.5682 28.4633 53.986 28.6364C54.4038 28.8096 54.8516 28.8987 55.304 28.8987H57.7625V26.4416H55.8445C55.5231 26.4417 55.2144 26.3162 54.9843 26.092C54.7542 25.8679 54.6208 25.5627 54.6127 25.2416V25.2416V18.8364H57.7677V16.1922H54.6127L54.6075 12.6338ZM121.684 12.6338H120.005V16.1922H117.334V17.8234H120.005V25.8805C120.01 26.6825 120.33 27.4504 120.898 28.0175C121.465 28.5846 122.233 28.905 123.036 28.9091H125.349V27.4338H123.067C122.883 27.4311 122.701 27.3921 122.531 27.3191C122.362 27.2461 122.209 27.1405 122.081 27.0083C121.952 26.8761 121.851 26.72 121.783 26.5487C121.715 26.3775 121.682 26.1946 121.684 26.0104V17.8234H125.349V16.1922H121.684V12.6338Z" fill="var(--fill-0, #4D4D4D)"/>
</g>
<defs>
<clipPath id="clip0_0_16">
<rect width="184" height="40" fill="white"/>
</clipPath>
</defs>
</svg>
