<svg preserveAspectRatio="none" width="100%" height="100%" overflow="visible" style="display: block;" viewBox="0 0 16 25" fill="none" xmlns="http://www.w3.org/2000/svg">
<g id="Frame 974">
<path id="Vector" d="M9.07319 24.5497L15.5563 17.97C15.8405 17.6805 16 17.2886 16 16.8799C16 16.4713 15.8405 16.0793 15.5563 15.7898L11.2342 11.4066C11.3763 11.5499 11.489 11.7202 11.5659 11.9079C11.6428 12.0955 11.6824 12.2968 11.6824 12.5C11.6824 12.7032 11.6428 12.9044 11.5659 13.0921C11.489 13.2797 11.3763 13.4501 11.2342 13.5933L4.75751 20.1698C4.61644 20.3129 4.50453 20.4829 4.42818 20.6699C4.35183 20.857 4.31253 21.0574 4.31253 21.2599C4.31253 21.4623 4.35183 21.6628 4.42818 21.8499C4.50453 22.0369 4.61644 22.2068 4.75751 22.35V22.35L6.92498 24.5497C7.21025 24.8381 7.59647 25 7.99909 25C8.40171 25 8.78793 24.8381 9.07319 24.5497Z" fill="var(--fill-0, #5A3CFA)"/>
<path id="Vector_2" d="M4.76066 22.3501C4.61959 22.207 4.50768 22.037 4.43133 21.85C4.35498 21.6629 4.31568 21.4625 4.31568 21.26C4.31568 21.0575 4.35498 20.8571 4.43133 20.67C4.50768 20.483 4.61959 20.313 4.76066 20.1699L11.2374 13.5935C11.3794 13.4502 11.4922 13.2799 11.5691 13.0922C11.646 12.9046 11.6856 12.7033 11.6856 12.5001C11.6856 12.2969 11.646 12.0956 11.5691 11.908C11.4922 11.7204 11.3794 11.55 11.2374 11.4067L9.07634 9.21025C8.9353 9.06708 8.76785 8.95351 8.58355 8.87602C8.39926 8.79853 8.20172 8.75865 8.00224 8.75865C7.80275 8.75865 7.60522 8.79853 7.42092 8.87602C7.23663 8.95351 7.06918 9.06708 6.92813 9.21025L0.444982 15.79C0.303907 15.9331 0.192 16.103 0.115649 16.2901C0.0392984 16.4771 0 16.6776 0 16.8801C0 17.0825 0.0392984 17.283 0.115649 17.47C0.192 17.6571 0.303907 17.827 0.444982 17.9702L4.76066 22.3501Z" fill="var(--fill-0, #7864FA)"/>
<path id="Vector_3" d="M12.3151 12.5015L9.07835 15.7832C8.79221 16.0736 8.63145 16.4675 8.63145 16.8782C8.63145 17.2889 8.79221 17.6828 9.07835 17.9732C9.3645 18.2636 9.7526 18.4268 10.1573 18.4268C10.5619 18.4268 10.95 18.2636 11.2362 17.9732L13.394 15.7832C13.6805 15.4935 14.0685 15.3308 14.473 15.3308C14.8774 15.3308 15.2654 15.4935 15.5519 15.7832L12.3151 12.5015Z" fill="var(--fill-0, #2D1ECD)"/>
<path id="Vector_4" d="M9.0764 15.7834L15.5563 9.21018C15.8405 8.92067 16 8.5287 16 8.12009C16 7.71147 15.8405 7.3195 15.5563 7.02999L11.2342 2.64678C11.3764 2.79032 11.4892 2.96094 11.5661 3.14886C11.6431 3.33677 11.6827 3.53826 11.6827 3.74176C11.6827 3.94526 11.6431 4.14676 11.5661 4.33467C11.4892 4.52259 11.3764 4.69321 11.2342 4.83675L4.75751 11.4099C4.61644 11.5531 4.50453 11.723 4.42818 11.9101C4.35183 12.0971 4.31253 12.2976 4.31253 12.5C4.31253 12.7025 4.35183 12.903 4.42818 13.09C4.50453 13.277 4.61644 13.447 4.75751 13.5901L9.0764 17.9733C8.7909 17.6826 8.63059 17.2888 8.63059 16.8784C8.63059 16.4679 8.7909 16.0741 9.0764 15.7834V15.7834Z" fill="var(--fill-0, #3791FA)"/>
<path id="Vector_5" d="M4.76066 11.4099L11.2374 4.83673C11.3795 4.69319 11.4923 4.52256 11.5693 4.33465C11.6462 4.14674 11.6859 3.94524 11.6859 3.74174C11.6859 3.53824 11.6462 3.33675 11.5693 3.14883C11.4923 2.96092 11.3795 2.79029 11.2374 2.64675L9.07634 0.450262C8.79108 0.161902 8.40486 0 8.00224 0C7.59962 0 7.2134 0.161902 6.92813 0.450262L0.444982 7.02996C0.303907 7.17311 0.192 7.34305 0.115649 7.53009C0.0392984 7.71713 0 7.91761 0 8.12006C0 8.32252 0.0392984 8.52299 0.115649 8.71003C0.192 8.89708 0.303907 9.06702 0.444982 9.21016L4.76066 13.5901C4.61959 13.447 4.50768 13.277 4.43133 13.09C4.35498 12.9029 4.31568 12.7025 4.31568 12.5C4.31568 12.2976 4.35498 12.0971 4.43133 11.91C4.50768 11.723 4.61959 11.5531 4.76066 11.4099V11.4099Z" fill="var(--fill-0, #5AC3FA)"/>
</g>
</svg>
